<svg xmlns="http://www.w3.org/2000/svg" version="1.1" width="380" height="380" viewBox="-90 -90 180 180"><circle cx="0" cy="0" r="62" fill="none" stroke="#eee"></circle><g><circle cx="-40.000000000000036" cy="-69.28203230275508" r="6" fill="hsl(56, 70%, 80%)"></circle><path d="M -36.928203230275535 -47.961524227066306 L -41.928203230275535 -56.62177826491069 M -23.07179676972452 -55.961524227066306 L -28.07179676972452 -64.6217782649107" fill="none" stroke="#aaa" stroke-width="1"></path><text x="-34.000000000000036" y="-64.28203230275508" fill="hsl(56, 70%, 80%)" font-family="consolas" font-size="8">2</text></g><g><circle cx="80" cy="-1.9594348786357652e-14" r="6" fill="hsl(193, 70%, 80%)"></circle><path d="M 60 -8.000000000000014 L 70 -8.000000000000018 M 60 7.999999999999985 L 70 7.999999999999983" fill="none" stroke="#aaa" stroke-width="1"></path><text x="86" y="4.9999999999999805" fill="hsl(193, 70%, 80%)" font-family="consolas" font-size="8">3</text></g><g><circle cx="-39.999999999999986" cy="69.28203230275511" r="6" fill="hsl(330, 70%, 80%)"></circle><path d="M -23.07179676972448 55.96152422706633 L -28.071796769724475 64.62177826491072 M -36.9282032302755 47.96152422706633 L -41.9282032302755 56.621778264910716" fill="none" stroke="#aaa" stroke-width="1"></path><text x="-33.999999999999986" y="74.28203230275511" fill="hsl(330, 70%, 80%)" font-family="consolas" font-size="8">1</text></g><path d="M 60 -8.000000000000014 Q -4.618802153517024 -7.999999999999998 , -36.9282032302755 47.96152422706633 M -36.9282032302755 47.96152422706633 L -24.99999999999999 43.30127018922194 M -36.9282032302755 47.96152422706633 L -38.856406460551014 35.30127018922194" fill="none" stroke-linecap="round" style="stroke-width: 5; stroke: rgb(170, 170, 170); stroke-dasharray: 0, 6;"></path><path d="M -36.928203230275535 -47.961524227066306 Q -9.237604307034008 1.4210854715202004e-14 , -36.9282032302755 47.96152422706633 M -36.9282032302755 47.96152422706633 L -24.99999999999999 43.30127018922194 M -36.9282032302755 47.96152422706633 L -38.856406460551014 35.30127018922194" fill="none" stroke-linecap="round" style="stroke-width: 2; stroke: rgb(179, 73, 173);"></path></svg>
