<svg xmlns="http://www.w3.org/2000/svg" version="1.1" width="1050" height="350"><g transform="translate(25,25)"><g><path d="M 0 300 L 1000 300" fill="none" stroke="#822222"></path><path d="M 0 0 L 0 300" fill="none" stroke="#822222"></path></g><path d="M 0 11.382525113825238 L 1000 11.382525113825238" fill="none" stroke="red"></path><path d="M 0 262.2533786225338 L 0.04053976667645042 262.2533786225338 L 0.3522943869786495 262.2533786225338 L 0.49012039272912483 262.2533786225338 L 0.6736229785628098 262.2533786225338 L 1.0005591654675663 262.2533786225338 L 1.3879785603677541 260.43217460432174 L 5.452011865768308 250.133699501337 L 17.798351514804335 250.5456385054564 L 86.25422821868955 250.26378550263786 L 202.37824738396364 239.20647539206476 L 202.4829338700106 238.98966538989666 L 240.78087234307606 234.93531834935317 L 240.81332140819745 234.93531834935317 L 252.15550662076592 230.59911830599117 L 317.24569518225616 230.59911830599117 L 561.449543846024 226.73990026739898 L 584.6676540650241 181.07971381079713 L 641.3414347447936 163.34465563344656 L 743.3272784261875 154.5638505456385 L 760.4627651725806 154.5638505456385 L 760.7921365441081 154.67225554672254 L 775.8020272312389 138.15133338151333 L 794.7200894402215 136.28676736286766 L 797.0683431091006 131.69039531690396 L 801.8802510551747 99.14721399147214 L 802.0406887775864 99.14721399147214 L 802.1037267825475 99.14721399147214 L 805.1305815270181 99.14721399147214 L 806.4541622587698 96.19859796198597 L 807.0061444684211 98.10652598106526 L 841.9917020332571 95.20127195201272 L 847.4187701250498 92.64291392642915 L 880.1693108727086 76.40384476403844 L 881.0447033887585 72.71807472718075 L 881.1482263380723 73.62867673628676 L 894.4598207261399 73.58531473585313 L 898.1843159942368 65.69343065693431 L 898.9693812559848 63.395244633952444 L 900.9309006173254 54.310905543109044 L 901.0400928849956 53.05340753053406 L 901.1140332483163 53.24853653248536 L 901.5453660913603 52.70651152706512 L 901.8704789567811 52.70651152706512 L 902.9923917448625 35.03649635036493 L 903.1658162240586 35.81701235817013 L 907.7996616456649 26.255691262556923 L 907.8937175847341 26.125605261256055 L 928.7968650868515 25.38845125388451 L 929.0350439314552 25.14996025149958 L 932.6529899046133 25.14996025149958 L 940.3034820006416 24.304401243044026 L 945.1975068871196 23.97918623979183 L 977.1477532681889 21.247380212473786 L 978.8144224536155 38.63554238635544 L 981.78270280373 28.22866228228662 L 982.6091021807907 21.876129218761264 L 983.253528246492 16.93286116932859 L 994.2227763586042 13.702392137023935 L 994.9627232312026 11.100672111006702 L 995.2676292781263 12.09799812097998 L 995.5131642818201 12.09799812097998 L 995.7381213620553 11.642697116426973 L 995.7867395623542 11.642697116426973 L 995.8371745667978 11.490930114909304 L 995.9569141895279 11.490930114909304 L 999.676164533062 11.490930114909304 L 999.8891281756812 11.490930114909304 L 1000 11.490930114909304" fill="none" stroke="#ccc"></path><g><circle cx="0" cy="262.2533786225338" r="1.5" fill="#ccc"></circle><circle cx="0.04053976667645042" cy="262.2533786225338" r="1.5" fill="#ccc"></circle><circle cx="0.3522943869786495" cy="262.2533786225338" r="1.5" fill="#ccc"></circle><circle cx="0.49012039272912483" cy="262.2533786225338" r="1.5" fill="#ccc"></circle><circle cx="0.6736229785628098" cy="262.2533786225338" r="1.5" fill="#ccc"></circle><circle cx="1.0005591654675663" cy="262.2533786225338" r="1.5" fill="#ccc"></circle><circle cx="1.3879785603677541" cy="260.43217460432174" r="1.5" fill="#ccc"></circle><circle cx="5.452011865768308" cy="250.133699501337" r="1.5" fill="#ccc"></circle><circle cx="17.798351514804335" cy="250.5456385054564" r="1.5" fill="#ccc"></circle><circle cx="86.25422821868955" cy="250.26378550263786" r="1.5" fill="#ccc"></circle><circle cx="202.37824738396364" cy="239.20647539206476" r="1.5" fill="#ccc"></circle><circle cx="202.4829338700106" cy="238.98966538989666" r="1.5" fill="#ccc"></circle><circle cx="240.78087234307606" cy="234.93531834935317" r="1.5" fill="#ccc"></circle><circle cx="240.81332140819745" cy="234.93531834935317" r="1.5" fill="#ccc"></circle><circle cx="252.15550662076592" cy="230.59911830599117" r="1.5" fill="#ccc"></circle><circle cx="317.24569518225616" cy="230.59911830599117" r="1.5" fill="#ccc"></circle><circle cx="561.449543846024" cy="226.73990026739898" r="1.5" fill="#ccc"></circle><circle cx="584.6676540650241" cy="181.07971381079713" r="1.5" fill="#ccc"></circle><circle cx="641.3414347447936" cy="163.34465563344656" r="1.5" fill="#ccc"></circle><circle cx="743.3272784261875" cy="154.5638505456385" r="1.5" fill="#ccc"></circle><circle cx="760.4627651725806" cy="154.5638505456385" r="1.5" fill="#ccc"></circle><circle cx="760.7921365441081" cy="154.67225554672254" r="1.5" fill="#ccc"></circle><circle cx="775.8020272312389" cy="138.15133338151333" r="1.5" fill="#ccc"></circle><circle cx="794.7200894402215" cy="136.28676736286766" r="1.5" fill="#ccc"></circle><circle cx="797.0683431091006" cy="131.69039531690396" r="1.5" fill="#ccc"></circle><circle cx="801.8802510551747" cy="99.14721399147214" r="1.5" fill="#ccc"></circle><circle cx="802.0406887775864" cy="99.14721399147214" r="1.5" fill="#ccc"></circle><circle cx="802.1037267825475" cy="99.14721399147214" r="1.5" fill="#ccc"></circle><circle cx="805.1305815270181" cy="99.14721399147214" r="1.5" fill="#ccc"></circle><circle cx="806.4541622587698" cy="96.19859796198597" r="1.5" fill="#ccc"></circle><circle cx="807.0061444684211" cy="98.10652598106526" r="1.5" fill="#ccc"></circle><circle cx="841.9917020332571" cy="95.20127195201272" r="1.5" fill="#ccc"></circle><circle cx="847.4187701250498" cy="92.64291392642915" r="1.5" fill="#ccc"></circle><circle cx="880.1693108727086" cy="76.40384476403844" r="1.5" fill="#ccc"></circle><circle cx="881.0447033887585" cy="72.71807472718075" r="1.5" fill="#ccc"></circle><circle cx="881.1482263380723" cy="73.62867673628676" r="1.5" fill="#ccc"></circle><circle cx="894.4598207261399" cy="73.58531473585313" r="1.5" fill="#ccc"></circle><circle cx="898.1843159942368" cy="65.69343065693431" r="1.5" fill="#ccc"></circle><circle cx="898.9693812559848" cy="63.395244633952444" r="1.5" fill="#ccc"></circle><circle cx="900.9309006173254" cy="54.310905543109044" r="1.5" fill="#ccc"></circle><circle cx="901.0400928849956" cy="53.05340753053406" r="1.5" fill="#ccc"></circle><circle cx="901.1140332483163" cy="53.24853653248536" r="1.5" fill="#ccc"></circle><circle cx="901.5453660913603" cy="52.70651152706512" r="1.5" fill="#ccc"></circle><circle cx="901.8704789567811" cy="52.70651152706512" r="1.5" fill="#ccc"></circle><circle cx="902.9923917448625" cy="35.03649635036493" r="1.5" fill="#ccc"></circle><circle cx="903.1658162240586" cy="35.81701235817013" r="1.5" fill="#ccc"></circle><circle cx="907.7996616456649" cy="26.255691262556923" r="1.5" fill="#ccc"></circle><circle cx="907.8937175847341" cy="26.125605261256055" r="1.5" fill="#ccc"></circle><circle cx="928.7968650868515" cy="25.38845125388451" r="1.5" fill="#ccc"></circle><circle cx="929.0350439314552" cy="25.14996025149958" r="1.5" fill="#ccc"></circle><circle cx="932.6529899046133" cy="25.14996025149958" r="1.5" fill="#ccc"></circle><circle cx="940.3034820006416" cy="24.304401243044026" r="1.5" fill="#ccc"></circle><circle cx="945.1975068871196" cy="23.97918623979183" r="1.5" fill="#ccc"></circle><circle cx="977.1477532681889" cy="21.247380212473786" r="1.5" fill="#ccc"></circle><circle cx="978.8144224536155" cy="38.63554238635544" r="1.5" fill="#ccc"></circle><circle cx="981.78270280373" cy="28.22866228228662" r="1.5" fill="#ccc"></circle><circle cx="982.6091021807907" cy="21.876129218761264" r="1.5" fill="#ccc"></circle><circle cx="983.253528246492" cy="16.93286116932859" r="1.5" fill="#ccc"></circle><circle cx="994.2227763586042" cy="13.702392137023935" r="1.5" fill="#ccc"></circle><circle cx="994.9627232312026" cy="11.100672111006702" r="1.5" fill="#ccc"></circle><circle cx="995.2676292781263" cy="12.09799812097998" r="1.5" fill="#ccc"></circle><circle cx="995.5131642818201" cy="12.09799812097998" r="1.5" fill="#ccc"></circle><circle cx="995.7381213620553" cy="11.642697116426973" r="1.5" fill="#ccc"></circle><circle cx="995.7867395623542" cy="11.642697116426973" r="1.5" fill="#ccc"></circle><circle cx="995.8371745667978" cy="11.490930114909304" r="1.5" fill="#ccc"></circle><circle cx="995.9569141895279" cy="11.490930114909304" r="1.5" fill="#ccc"></circle><circle cx="999.676164533062" cy="11.490930114909304" r="1.5" fill="#ccc"></circle><circle cx="999.8891281756812" cy="11.490930114909304" r="1.5" fill="#ccc"></circle><circle cx="1000" cy="11.490930114909304" r="1.5" fill="#ccc"></circle></g></g></svg>
